<svg xmlns="http://www.w3.org/2000/svg" xmlns:xlink="http://www.w3.org/1999/xlink" width="500" zoomAndPan="magnify" viewBox="0 0 375 374.999991" height="500" preserveAspectRatio="xMidYMid meet" version="1.0"><defs><clipPath id="82c2e4fa65"><path d="M 125 59.6875 L 250 59.6875 L 250 193 L 125 193 Z M 125 59.6875 " clip-rule="nonzero"/></clipPath><clipPath id="a1b128376f"><path d="M 71.03125 192 L 304 192 L 304 315.4375 L 71.03125 315.4375 Z M 71.03125 192 " clip-rule="nonzero"/></clipPath></defs><rect x="-37.5" width="450" fill="#ffffff" y="-37.499999" height="449.999989" fill-opacity="1"/><rect x="-37.5" width="450" fill="#000000" y="-37.499999" height="449.999989" fill-opacity="1"/><g clip-path="url(#82c2e4fa65)"><path fill="#ffffff" d="M 187.5 192.28125 C 221.71875 192.28125 249.550781 155.964844 249.550781 121.746094 C 249.550781 87.53125 221.71875 59.6875 187.5 59.6875 C 153.28125 59.6875 125.441406 87.53125 125.441406 121.746094 C 125.449219 155.960938 153.28125 192.28125 187.5 192.28125 Z M 187.5 192.28125 " fill-opacity="1" fill-rule="nonzero"/></g><g clip-path="url(#a1b128376f)"><path fill="#ffffff" d="M 234.085938 192.917969 C 222.046875 202.089844 207.03125 207.546875 190.765625 207.546875 L 184.234375 207.546875 C 167.964844 207.546875 152.945312 202.085938 140.910156 192.917969 C 101.605469 199.273438 71.59375 233.335938 71.59375 274.429688 C 71.59375 297.003906 123.484375 315.308594 187.5 315.308594 C 251.507812 315.308594 303.402344 297.003906 303.402344 274.429688 C 303.402344 233.335938 273.386719 199.273438 234.085938 192.917969 Z M 234.085938 192.917969 " fill-opacity="1" fill-rule="nonzero"/></g></svg>